<?xml version="1.0" encoding="UTF-8" standalone="no"?>
<!-- Created with Inkscape (http://www.inkscape.org/) -->

<svg
   xmlns:dc="http://purl.org/dc/elements/1.1/"
   xmlns:cc="http://creativecommons.org/ns#"
   xmlns:rdf="http://www.w3.org/1999/02/22-rdf-syntax-ns#"
   xmlns:svg="http://www.w3.org/2000/svg"
   xmlns="http://www.w3.org/2000/svg"
   xmlns:xlink="http://www.w3.org/1999/xlink"
   xmlns:sodipodi="http://sodipodi.sourceforge.net/DTD/sodipodi-0.dtd"
   xmlns:inkscape="http://www.inkscape.org/namespaces/inkscape"
   width="20.32mm"
   height="128.5mm"
   viewBox="0 0 20.32 128.5"
   version="1.1"
   id="svg8"
   inkscape:version="0.92.3 (2405546, 2018-03-11)"
   sodipodi:docname="nudge.svg">
  <defs
     id="defs2">
    <linearGradient
       inkscape:collect="always"
       id="linearGradient4567-6">
      <stop
         style="stop-color:#e1e1e1;stop-opacity:1"
         offset="0"
         id="stop4563" />
      <stop
         style="stop-color:#ededed;stop-opacity:1"
         offset="1"
         id="stop4565" />
    </linearGradient>
    <linearGradient
       inkscape:collect="always"
       xlink:href="#linearGradient4567-6"
       id="linearGradient4576"
       gradientUnits="userSpaceOnUse"
       x1="0"
       y1="297"
       x2="0"
       y2="168.4881"
       gradientTransform="matrix(0.66900372,0,0,0.99997931,0,0.00483359)" />
  </defs>
  <sodipodi:namedview
     id="base"
     pagecolor="#ffffff"
     bordercolor="#666666"
     borderopacity="1.0"
     inkscape:pageopacity="0.0"
     inkscape:pageshadow="2"
     inkscape:zoom="1"
     inkscape:cx="-34.433557"
     inkscape:cy="255.72729"
     inkscape:document-units="mm"
     inkscape:current-layer="layer1"
     showgrid="false"
     inkscape:snap-to-guides="false"
     inkscape:snap-others="true"
     inkscape:snap-object-midpoints="true"
     inkscape:window-width="1032"
     inkscape:window-height="982"
     inkscape:window-x="627"
     inkscape:window-y="54"
     inkscape:window-maximized="0" />
  <metadata
     id="metadata5">
    <rdf:RDF>
      <cc:Work
         rdf:about="">
        <dc:format>image/svg+xml</dc:format>
        <dc:type
           rdf:resource="http://purl.org/dc/dcmitype/StillImage" />
        <dc:title></dc:title>
      </cc:Work>
    </rdf:RDF>
  </metadata>
  <g
     inkscape:label="Layer 1"
     inkscape:groupmode="layer"
     id="layer1"
     transform="translate(0,-168.5)"
     style="display:inline">
    <rect
       style="opacity:1;fill:url(#linearGradient4576);fill-opacity:1;stroke:none;stroke-width:0.86562973;stroke-linecap:butt;stroke-linejoin:round;stroke-miterlimit:4;stroke-dasharray:none"
       id="rect4528"
       width="20.378181"
       height="128.50923"
       x="0"
       y="168.48944"
       ry="0" />
    <rect
       style="opacity:1;fill:#1f1f1f;fill-opacity:1;stroke:none;stroke-width:1.07078326;stroke-linecap:butt;stroke-linejoin:round;stroke-miterlimit:4;stroke-dasharray:none"
       id="rect4578"
       width="17.91115"
       height="16.623178"
       x="1.2335157"
       y="266.31613"
       ry="2.478467" />
    <g
       aria-label="dawn bree"
       style="font-style:normal;font-variant:normal;font-weight:normal;font-stretch:normal;font-size:3.52777767px;line-height:1.25;font-family:Roboto;-inkscape-font-specification:'Roboto, Normal';font-variant-ligatures:normal;font-variant-caps:normal;font-variant-numeric:normal;font-feature-settings:normal;text-align:start;letter-spacing:0px;word-spacing:0px;writing-mode:lr-tb;text-anchor:start;fill:#1f1f1f;fill-opacity:1;stroke:none;stroke-width:0.26458332"
       id="text4582"
       transform="matrix(1.1959345,0,0,1.1959345,-8.0252852,-58.051997)">
      <path
         d="m 7.2272888,288.39409 q 0,-0.42891 0.2032607,-0.68902 0.2032606,-0.26183 0.5322672,-0.26183 0.327284,0 0.5184868,0.22394 v -0.97152 h 0.3186714 v 2.64583 H 8.5071418 l -0.015503,-0.19981 q -0.1912028,0.23426 -0.5322672,0.23426 -0.323839,0 -0.5288221,-0.26527 -0.2032607,-0.26527 -0.2032607,-0.69246 z m 0.3186713,0.0362 q 0,0.31695 0.1309137,0.4961 0.1309136,0.17914 0.361735,0.17914 0.3031684,0 0.4426947,-0.27216 v -0.85611 q -0.1429714,-0.26355 -0.4392496,-0.26355 -0.2342665,0 -0.3651801,0.18087 -0.1309137,0.18087 -0.1309137,0.53571 z"
         style="font-style:normal;font-variant:normal;font-weight:normal;font-stretch:normal;font-size:3.52777767px;font-family:Roboto;-inkscape-font-specification:'Roboto, Normal';font-variant-ligatures:normal;font-variant-caps:normal;font-variant-numeric:normal;font-feature-settings:normal;text-align:start;writing-mode:lr-tb;text-anchor:start;fill:#1f1f1f;fill-opacity:1;stroke-width:0.26458332"
         id="path4773"
         inkscape:connector-curvature="0" />
      <path
         d="m 10.446731,289.34149 q -0.02756,-0.0551 -0.04479,-0.19637 -0.222208,0.23082 -0.5305444,0.23082 -0.2756077,0 -0.4530301,-0.15503 -0.1756998,-0.15675 -0.1756998,-0.39618 0,-0.29111 0.2204861,-0.45131 0.2222086,-0.16192 0.6235622,-0.16192 h 0.310059 v -0.14642 q 0,-0.16708 -0.09991,-0.26527 -0.09991,-0.0999 -0.294556,-0.0999 -0.170532,0 -0.2859427,0.0861 -0.1154107,0.0861 -0.1154107,0.20843 H 9.2805657 q 0,-0.13953 0.098185,-0.26872 0.099908,-0.13091 0.2687175,-0.2067 0.1705322,-0.0758 0.3737928,-0.0758 0.322117,0 0.504707,0.16192 0.18259,0.1602 0.18948,0.4427 v 0.85783 q 0,0.25666 0.06546,0.40824 v 0.0276 z m -0.5288226,-0.24288 q 0.1498616,0 0.2842206,-0.0775 0.134358,-0.0775 0.194648,-0.20154 v -0.38241 h -0.24977 q -0.585666,0 -0.585666,0.34279 0,0.14986 0.099908,0.23427 0.099908,0.0844 0.2566596,0.0844 z"
         style="font-style:normal;font-variant:normal;font-weight:normal;font-stretch:normal;font-size:3.52777767px;font-family:Roboto;-inkscape-font-specification:'Roboto, Normal';font-variant-ligatures:normal;font-variant-caps:normal;font-variant-numeric:normal;font-feature-settings:normal;text-align:start;writing-mode:lr-tb;text-anchor:start;fill:#1f1f1f;fill-opacity:1;stroke-width:0.26458332"
         id="path4775"
         inkscape:connector-curvature="0" />
      <path
         d="m 12.868633,288.90224 0.35829,-1.42454 h 0.318671 l -0.542603,1.86379 h -0.258382 l -0.45303,-1.41249 -0.440972,1.41249 h -0.258382 l -0.54088,-1.86379 h 0.316949 l 0.366902,1.39526 0.434082,-1.39526 h 0.25666 z"
         style="font-style:normal;font-variant:normal;font-weight:normal;font-stretch:normal;font-size:3.52777767px;font-family:Roboto;-inkscape-font-specification:'Roboto, Normal';font-variant-ligatures:normal;font-variant-caps:normal;font-variant-numeric:normal;font-feature-settings:normal;text-align:start;writing-mode:lr-tb;text-anchor:start;fill:#1f1f1f;fill-opacity:1;stroke-width:0.26458332"
         id="path4777"
         inkscape:connector-curvature="0" />
      <path
         d="m 14.172601,287.4777 0.01033,0.23426 q 0.213596,-0.26872 0.558106,-0.26872 0.590834,0 0.596001,0.66663 v 1.23162 h -0.318671 v -1.23334 q -0.0017,-0.20154 -0.09302,-0.298 -0.08957,-0.0965 -0.280776,-0.0965 -0.155029,0 -0.272162,0.0827 -0.117134,0.0827 -0.18259,0.21704 v 1.32808 h -0.318672 v -1.86379 z"
         style="font-style:normal;font-variant:normal;font-weight:normal;font-stretch:normal;font-size:3.52777767px;font-family:Roboto;-inkscape-font-specification:'Roboto, Normal';font-variant-ligatures:normal;font-variant-caps:normal;font-variant-numeric:normal;font-feature-settings:normal;text-align:start;writing-mode:lr-tb;text-anchor:start;fill:#1f1f1f;fill-opacity:1;stroke-width:0.26458332"
         id="path4779"
         inkscape:connector-curvature="0" />
      <path
         d="m 18.273988,288.43026 q 0,0.4272 -0.196371,0.6873 -0.19637,0.25838 -0.527099,0.25838 -0.353122,0 -0.546048,-0.24977 l -0.0155,0.21532 h -0.292833 v -2.64583 h 0.318672 v 0.98702 q 0.192925,-0.23944 0.532267,-0.23944 0.339342,0 0.532267,0.25666 0.194648,0.25666 0.194648,0.7028 z m -0.318671,-0.0362 q 0,-0.32556 -0.125746,-0.50298 -0.125746,-0.17743 -0.361735,-0.17743 -0.315227,0 -0.45303,0.29284 v 0.80615 q 0.146416,0.29283 0.456475,0.29283 0.229098,0 0.356567,-0.17742 0.127469,-0.17742 0.127469,-0.53399 z"
         style="font-style:normal;font-variant:normal;font-weight:normal;font-stretch:normal;font-size:3.52777767px;font-family:Roboto;-inkscape-font-specification:'Roboto, Normal';font-variant-ligatures:normal;font-variant-caps:normal;font-variant-numeric:normal;font-feature-settings:normal;text-align:start;writing-mode:lr-tb;text-anchor:start;fill:#1f1f1f;fill-opacity:1;stroke-width:0.26458332"
         id="path4781"
         inkscape:connector-curvature="0" />
      <path
         d="m 19.57451,287.76364 q -0.07235,-0.0121 -0.156751,-0.0121 -0.313504,0 -0.42547,0.267 v 1.32291 h -0.318671 v -1.86379 h 0.310059 l 0.0052,0.21531 q 0.156752,-0.24977 0.444417,-0.24977 0.09302,0 0.141249,0.0241 z"
         style="font-style:normal;font-variant:normal;font-weight:normal;font-stretch:normal;font-size:3.52777767px;font-family:Roboto;-inkscape-font-specification:'Roboto, Normal';font-variant-ligatures:normal;font-variant-caps:normal;font-variant-numeric:normal;font-feature-settings:normal;text-align:start;writing-mode:lr-tb;text-anchor:start;fill:#1f1f1f;fill-opacity:1;stroke-width:0.26458332"
         id="path4783"
         inkscape:connector-curvature="0" />
      <path
         d="m 20.639045,289.37594 q -0.37896,0 -0.616672,-0.24804 -0.237712,-0.24977 -0.237712,-0.66663 v -0.0586 q 0,-0.27733 0.105076,-0.49437 0.106798,-0.21876 0.296278,-0.34106 0.191203,-0.12403 0.413412,-0.12403 0.363457,0 0.564995,0.23944 0.201538,0.23943 0.201538,0.68557 v 0.13264 h -1.262627 q 0.0069,0.27561 0.160197,0.44614 0.155029,0.16881 0.392741,0.16881 0.168809,0 0.285942,-0.0689 0.117134,-0.0689 0.204984,-0.18259 l 0.194648,0.15158 q -0.234267,0.36001 -0.7028,0.36001 z m -0.03962,-1.67087 q -0.192926,0 -0.323839,0.14125 -0.130914,0.13953 -0.16192,0.39274 h 0.933621 v -0.0241 q -0.01378,-0.24288 -0.130914,-0.37552 -0.117133,-0.13436 -0.316948,-0.13436 z"
         style="font-style:normal;font-variant:normal;font-weight:normal;font-stretch:normal;font-size:3.52777767px;font-family:Roboto;-inkscape-font-specification:'Roboto, Normal';font-variant-ligatures:normal;font-variant-caps:normal;font-variant-numeric:normal;font-feature-settings:normal;text-align:start;writing-mode:lr-tb;text-anchor:start;fill:#1f1f1f;fill-opacity:1;stroke-width:0.26458332"
         id="path4785"
         inkscape:connector-curvature="0" />
      <path
         d="m 22.506287,289.37594 q -0.378961,0 -0.616672,-0.24804 -0.237712,-0.24977 -0.237712,-0.66663 v -0.0586 q 0,-0.27733 0.105076,-0.49437 0.106798,-0.21876 0.296278,-0.34106 0.191203,-0.12403 0.413411,-0.12403 0.363458,0 0.564996,0.23944 0.201538,0.23943 0.201538,0.68557 v 0.13264 h -1.262627 q 0.0069,0.27561 0.160197,0.44614 0.155029,0.16881 0.39274,0.16881 0.16881,0 0.285943,-0.0689 0.117134,-0.0689 0.204984,-0.18259 l 0.194647,0.15158 q -0.234266,0.36001 -0.702799,0.36001 z m -0.03962,-1.67087 q -0.192925,0 -0.323839,0.14125 -0.130913,0.13953 -0.161919,0.39274 h 0.933621 v -0.0241 q -0.01378,-0.24288 -0.130914,-0.37552 -0.117133,-0.13436 -0.316949,-0.13436 z"
         style="font-style:normal;font-variant:normal;font-weight:normal;font-stretch:normal;font-size:3.52777767px;font-family:Roboto;-inkscape-font-specification:'Roboto, Normal';font-variant-ligatures:normal;font-variant-caps:normal;font-variant-numeric:normal;font-feature-settings:normal;text-align:start;writing-mode:lr-tb;text-anchor:start;fill:#1f1f1f;fill-opacity:1;stroke-width:0.26458332"
         id="path4787"
         inkscape:connector-curvature="0" />
    </g>
    <flowRoot
       xml:space="preserve"
       id="flowRoot950"
       style="font-style:normal;font-weight:normal;font-size:40px;line-height:1.25;font-family:sans-serif;letter-spacing:0px;word-spacing:0px;fill:#000000;fill-opacity:1;stroke:none"
       transform="matrix(0.26458333,0,0,0.26458333,0,168.5)"><flowRegion
         id="flowRegion952"><rect
           id="rect954"
           width="132.93608"
           height="41.012192"
           x="-11.313708"
           y="61.405224" /></flowRegion><flowPara
         id="flowPara956"></flowPara></flowRoot>    <g
       aria-label="nudge"
       style="font-style:normal;font-variant:normal;font-weight:300;font-stretch:normal;font-size:7.05555534px;line-height:1.25;font-family:Roboto;-inkscape-font-specification:'Roboto, Light';font-variant-ligatures:normal;font-variant-caps:normal;font-variant-numeric:normal;font-feature-settings:normal;text-align:start;letter-spacing:0px;word-spacing:0px;writing-mode:lr-tb;text-anchor:start;fill:#000000;fill-opacity:1;stroke:none;stroke-width:0.26458332"
       id="text1010">
      <path
         d="m 1.3679241,175.78837 0.01378,0.63734 q 0.2101508,-0.34451 0.5236545,-0.52365 0.3135037,-0.18259 0.6924641,-0.18259 0.5994466,0 0.8922798,0.33761 0.2928331,0.33762 0.2962782,1.01286 v 2.44602 H 3.3764147 v -2.44946 q -0.00345,-0.49954 -0.2135959,-0.74414 -0.2067057,-0.2446 -0.6649034,-0.2446 -0.3824056,0 -0.6786838,0.24115 -0.2928331,0.23771 -0.434082,0.64424 v 2.55281 H 0.97518322 v -3.72759 z"
         style="font-style:normal;font-variant:normal;font-weight:300;font-stretch:normal;font-size:7.05555534px;font-family:Roboto;-inkscape-font-specification:'Roboto, Light';font-variant-ligatures:normal;font-variant-caps:normal;font-variant-numeric:normal;font-feature-settings:normal;text-align:start;writing-mode:lr-tb;text-anchor:start;stroke-width:0.26458332"
         id="path1144" />
      <path
         d="m 7.2452569,179.04398 q -0.3720703,0.54088 -1.1885579,0.54088 -0.5960015,0 -0.9060601,-0.34451 -0.3100586,-0.34795 -0.3169488,-1.02664 v -2.42534 h 0.4099664 v 2.37367 q 0,1.06453 0.8612738,1.06453 0.8957248,0 1.1334364,-0.74069 v -2.69751 h 0.4134114 v 3.72759 h -0.399631 z"
         style="font-style:normal;font-variant:normal;font-weight:300;font-stretch:normal;font-size:7.05555534px;font-family:Roboto;-inkscape-font-specification:'Roboto, Light';font-variant-ligatures:normal;font-variant-caps:normal;font-variant-numeric:normal;font-feature-settings:normal;text-align:start;writing-mode:lr-tb;text-anchor:start;stroke-width:0.26458332"
         id="path1146" />
      <path
         d="m 8.5543932,177.61771 q 0,-0.86816 0.3858507,-1.38148 0.3892958,-0.51676 1.0541992,-0.51676 0.7544759,0 1.1506619,0.596 v -2.09118 h 0.409966 v 5.29167 h -0.38585 l -0.01723,-0.49609 q -0.396186,0.56499 -1.1644421,0.56499 -0.6442329,0 -1.0404188,-0.51676 -0.3927409,-0.52021 -0.3927409,-1.40216 z m 0.4168565,0.0724 q 0,0.71313 0.2859429,1.12655 0.285943,0.40996 0.8061524,0.40996 0.761366,0 1.08176,-0.67179 v -1.75011 q -0.320394,-0.72691 -1.07487,-0.72691 -0.5202092,0 -0.8095973,0.40996 -0.289388,0.40652 -0.289388,1.20234 z"
         style="font-style:normal;font-variant:normal;font-weight:300;font-stretch:normal;font-size:7.05555534px;font-family:Roboto;-inkscape-font-specification:'Roboto, Light';font-variant-ligatures:normal;font-variant-caps:normal;font-variant-numeric:normal;font-feature-settings:normal;text-align:start;writing-mode:lr-tb;text-anchor:start;stroke-width:0.26458332"
         id="path1148" />
      <path
         d="m 12.481802,177.61771 q 0,-0.87505 0.385851,-1.38493 0.389296,-0.51331 1.054199,-0.51331 0.761366,0 1.157552,0.60633 l 0.02067,-0.53743 h 0.385851 v 3.6518 q 0,0.72002 -0.403077,1.14033 -0.403076,0.4203 -1.092095,0.4203 -0.389296,0 -0.74414,-0.1757 -0.3514,-0.17226 -0.554661,-0.46165 l 0.230822,-0.24804 q 0.437527,0.53743 1.040418,0.53743 0.516765,0 0.806153,-0.30661 0.289388,-0.30317 0.299723,-0.84405 v -0.46853 q -0.396186,0.55121 -1.154107,0.55121 -0.647678,0 -1.040419,-0.51676 -0.392741,-0.51677 -0.392741,-1.39527 z m 0.416857,0.0724 q 0,0.71313 0.285943,1.12655 0.285943,0.40996 0.806152,0.40996 0.761366,0 1.078315,-0.68213 v -1.73288 q -0.144694,-0.35829 -0.416857,-0.54432 -0.272162,-0.18948 -0.654568,-0.18948 -0.520209,0 -0.809597,0.40996 -0.289388,0.40652 -0.289388,1.20234 z"
         style="font-style:normal;font-variant:normal;font-weight:300;font-stretch:normal;font-size:7.05555534px;font-family:Roboto;-inkscape-font-specification:'Roboto, Light';font-variant-ligatures:normal;font-variant-caps:normal;font-variant-numeric:normal;font-feature-settings:normal;text-align:start;writing-mode:lr-tb;text-anchor:start;stroke-width:0.26458332"
         id="path1150" />
      <path
         d="m 18.00429,179.58486 q -0.475424,0 -0.861274,-0.23426 -0.382406,-0.23427 -0.596002,-0.65113 -0.213596,-0.4203 -0.213596,-0.94051 v -0.14814 q 0,-0.53743 0.206706,-0.96807 0.210151,-0.43064 0.582221,-0.67524 0.37207,-0.24804 0.806152,-0.24804 0.678684,0 1.07487,0.46508 0.399631,0.46165 0.399631,1.26435 v 0.23082 h -2.659613 v 0.0792 q 0,0.6339 0.361735,1.05765 0.36518,0.4203 0.916395,0.4203 0.330729,0 0.582221,-0.12058 0.254937,-0.12058 0.461643,-0.38585 l 0.258382,0.19637 q -0.454753,0.65801 -1.319471,0.65801 z m -0.07579,-3.51399 q -0.465087,0 -0.785481,0.34106 -0.316949,0.34106 -0.385851,0.9164 h 2.235867 v -0.0448 q -0.01723,-0.53744 -0.306614,-0.87506 -0.289388,-0.33761 -0.757921,-0.33761 z"
         style="font-style:normal;font-variant:normal;font-weight:300;font-stretch:normal;font-size:7.05555534px;font-family:Roboto;-inkscape-font-specification:'Roboto, Light';font-variant-ligatures:normal;font-variant-caps:normal;font-variant-numeric:normal;font-feature-settings:normal;text-align:start;writing-mode:lr-tb;text-anchor:start;stroke-width:0.26458332"
         id="path1152" />
    </g>
    <g
       aria-label="output"
       inkscape:transform-center-y="3.9288648"
       style="font-style:normal;font-weight:normal;font-size:10.58333302px;line-height:1.25;font-family:sans-serif;letter-spacing:0px;word-spacing:0px;display:inline;fill:#f1f1f1;fill-opacity:1;stroke:none;stroke-width:0.26458332"
       id="text1014-8">
      <path
         d="m 4.7443756,269.8367 q 0,-0.30127 0.1174777,-0.54191 0.1193726,-0.24064 0.3296957,-0.37138 0.2122178,-0.13075 0.4831746,-0.13075 0.4187514,0 0.6764445,0.28991 0.259588,0.2899 0.259588,0.77118 v 0.0246 q 0,0.29938 -0.115583,0.53812 -0.1136881,0.23685 -0.3278008,0.36949 -0.2122179,0.13263 -0.4888591,0.13263 -0.4168565,0 -0.6764445,-0.2899 -0.2576931,-0.28991 -0.2576931,-0.7674 z m 0.3524332,0.0417 q 0,0.34106 0.1572686,0.54759 0.1591635,0.20654 0.4244358,0.20654 0.2671672,0 0.4244358,-0.20843 0.1572686,-0.21032 0.1572686,-0.58739 0,-0.33727 -0.1610582,-0.5457 -0.1591634,-0.21033 -0.4244358,-0.21033 -0.2595879,0 -0.4187513,0.20654 -0.1591635,0.20653 -0.1591635,0.59118 z"
         style="font-style:normal;font-variant:normal;font-weight:normal;font-stretch:normal;font-size:3.88055563px;font-family:Roboto;-inkscape-font-specification:'Roboto, Normal';font-variant-ligatures:normal;font-variant-caps:normal;font-variant-numeric:normal;font-feature-settings:normal;text-align:start;writing-mode:lr-tb;text-anchor:start;fill:#f1f1f1;fill-opacity:1;stroke-width:0.26458332"
         id="path1096" />
      <path
         d="m 8.3160783,270.67799 q -0.2046387,0.24064 -0.6006524,0.24064 -0.3278009,0 -0.5002279,-0.18948 -0.1705322,-0.19137 -0.172427,-0.56465 v -1.33394 h 0.3505384 v 1.32447 q 0,0.46612 0.3789605,0.46612 0.4016982,0 0.5343344,-0.29938 v -1.49121 h 0.3505384 v 2.05018 H 8.3236575 Z"
         style="font-style:normal;font-variant:normal;font-weight:normal;font-stretch:normal;font-size:3.88055563px;font-family:Roboto;-inkscape-font-specification:'Roboto, Normal';font-variant-ligatures:normal;font-variant-caps:normal;font-variant-numeric:normal;font-feature-settings:normal;text-align:start;writing-mode:lr-tb;text-anchor:start;fill:#f1f1f1;fill-opacity:1;stroke-width:0.26458332"
         id="path1098" />
      <path
         d="m 9.6632831,268.33412 v 0.49644 h 0.3827499 v 0.27096 H 9.6632831 v 1.27141 q 0,0.12316 0.05116,0.18569 0.05116,0.0606 0.1743219,0.0606 0.060634,0 0.1667424,-0.0227 v 0.28422 q -0.1383204,0.0379 -0.2690618,0.0379 -0.2349555,0 -0.3543281,-0.14211 -0.1193725,-0.14211 -0.1193725,-0.40359 v -1.27141 H 8.9394685 v -0.27096 h 0.3732761 v -0.49644 z"
         style="font-style:normal;font-variant:normal;font-weight:normal;font-stretch:normal;font-size:3.88055563px;font-family:Roboto;-inkscape-font-specification:'Roboto, Normal';font-variant-ligatures:normal;font-variant-caps:normal;font-variant-numeric:normal;font-feature-settings:normal;text-align:start;writing-mode:lr-tb;text-anchor:start;fill:#f1f1f1;fill-opacity:1;stroke-width:0.26458332"
         id="path1100" />
      <path
         d="m 12.185265,269.87839 q 0,0.46801 -0.214113,0.75413 -0.214112,0.28611 -0.579809,0.28611 -0.373276,0 -0.587389,-0.23685 v 0.9872 h -0.350538 v -2.83842 h 0.320221 l 0.01705,0.22738 q 0.214113,-0.26528 0.594968,-0.26528 0.369487,0 0.5836,0.27854 0.216007,0.27854 0.216007,0.77498 z m -0.350538,-0.0398 q 0,-0.34675 -0.147795,-0.5476 -0.147795,-0.20085 -0.405488,-0.20085 -0.318327,0 -0.47749,0.28232 v 0.97962 q 0.157269,0.28043 0.48128,0.28043 0.252009,0 0.399803,-0.19896 0.14969,-0.20085 0.14969,-0.59496 z"
         style="font-style:normal;font-variant:normal;font-weight:normal;font-stretch:normal;font-size:3.88055563px;font-family:Roboto;-inkscape-font-specification:'Roboto, Normal';font-variant-ligatures:normal;font-variant-caps:normal;font-variant-numeric:normal;font-feature-settings:normal;text-align:start;writing-mode:lr-tb;text-anchor:start;fill:#f1f1f1;fill-opacity:1;stroke-width:0.26458332"
         id="path1102" />
      <path
         d="m 13.894377,270.67799 q -0.204639,0.24064 -0.600652,0.24064 -0.327801,0 -0.500228,-0.18948 -0.170532,-0.19137 -0.172427,-0.56465 v -1.33394 h 0.350538 v 1.32447 q 0,0.46612 0.378961,0.46612 0.401698,0 0.534334,-0.29938 v -1.49121 h 0.350539 v 2.05018 h -0.333486 z"
         style="font-style:normal;font-variant:normal;font-weight:normal;font-stretch:normal;font-size:3.88055563px;font-family:Roboto;-inkscape-font-specification:'Roboto, Normal';font-variant-ligatures:normal;font-variant-caps:normal;font-variant-numeric:normal;font-feature-settings:normal;text-align:start;writing-mode:lr-tb;text-anchor:start;fill:#f1f1f1;fill-opacity:1;stroke-width:0.26458332"
         id="path1104" />
      <path
         d="m 15.241582,268.33412 v 0.49644 h 0.38275 v 0.27096 h -0.38275 v 1.27141 q 0,0.12316 0.05116,0.18569 0.05116,0.0606 0.174322,0.0606 0.06063,0 0.166743,-0.0227 v 0.28422 q -0.138321,0.0379 -0.269062,0.0379 -0.234956,0 -0.354328,-0.14211 -0.119373,-0.14211 -0.119373,-0.40359 v -1.27141 h -0.373276 v -0.27096 h 0.373276 v -0.49644 z"
         style="font-style:normal;font-variant:normal;font-weight:normal;font-stretch:normal;font-size:3.88055563px;font-family:Roboto;-inkscape-font-specification:'Roboto, Normal';font-variant-ligatures:normal;font-variant-caps:normal;font-variant-numeric:normal;font-feature-settings:normal;text-align:start;writing-mode:lr-tb;text-anchor:start;fill:#f1f1f1;fill-opacity:1;stroke-width:0.26458332"
         id="path1106" />
    </g>
    <g
       aria-label="input"
       style="font-style:normal;font-weight:normal;font-size:10.58333302px;line-height:1.25;font-family:sans-serif;letter-spacing:0px;word-spacing:0px;display:inline;fill:#1f1f1f;fill-opacity:1;stroke:none;stroke-width:0.26458332"
       id="text1014-3">
      <path
         d="M 6.4364342,186.59019 H 6.0858958 v -2.05017 h 0.3505384 z m -0.3789605,-2.59398 q 0,-0.0853 0.05116,-0.144 0.053055,-0.0587 0.1553738,-0.0587 0.1023193,0 0.1553738,0.0587 0.053055,0.0587 0.053055,0.144 0,0.0853 -0.053055,0.14211 -0.053054,0.0568 -0.1553738,0.0568 -0.1023193,0 -0.1553738,-0.0568 -0.05116,-0.0568 -0.05116,-0.14211 z"
         style="font-style:normal;font-variant:normal;font-weight:normal;font-stretch:normal;font-size:3.88055563px;font-family:Roboto;-inkscape-font-specification:'Roboto, Normal';font-variant-ligatures:normal;font-variant-caps:normal;font-variant-numeric:normal;font-feature-settings:normal;text-align:start;writing-mode:lr-tb;text-anchor:start;fill:#1f1f1f;fill-opacity:1;stroke-width:0.26458332"
         id="path1133" />
      <path
         d="m 7.3269915,184.54002 0.011369,0.25769 q 0.2349555,-0.29559 0.613916,-0.29559 0.6499173,0 0.6556017,0.73329 v 1.35478 H 8.2573395 v -1.35667 q -0.00189,-0.2217 -0.1023193,-0.3278 -0.09853,-0.10611 -0.3088529,-0.10611 -0.1705322,0 -0.2993788,0.0909 -0.1288465,0.0909 -0.200849,0.23874 v 1.46089 H 6.995401 v -2.05017 z"
         style="font-style:normal;font-variant:normal;font-weight:normal;font-stretch:normal;font-size:3.88055563px;font-family:Roboto;-inkscape-font-specification:'Roboto, Normal';font-variant-ligatures:normal;font-variant-caps:normal;font-variant-numeric:normal;font-feature-settings:normal;text-align:start;writing-mode:lr-tb;text-anchor:start;fill:#1f1f1f;fill-opacity:1;stroke-width:0.26458332"
         id="path1135" />
      <path
         d="m 10.872167,185.58784 q 0,0.46802 -0.214112,0.75414 -0.214113,0.28611 -0.57981,0.28611 -0.3732762,0 -0.5873889,-0.23685 v 0.98719 H 9.1403177 v -2.83841 h 0.3202216 l 0.017053,0.22737 q 0.2141127,-0.26527 0.5949685,-0.26527 0.369486,0 0.583599,0.27854 0.216007,0.27853 0.216007,0.77497 z m -0.350538,-0.0398 q 0,-0.34675 -0.147795,-0.54759 -0.147794,-0.20085 -0.4054876,-0.20085 -0.3183269,0 -0.4774903,0.28232 v 0.97961 q 0.1572686,0.28044 0.4812799,0.28044 0.252009,0 0.399803,-0.19896 0.14969,-0.20085 0.14969,-0.59497 z"
         style="font-style:normal;font-variant:normal;font-weight:normal;font-stretch:normal;font-size:3.88055563px;font-family:Roboto;-inkscape-font-specification:'Roboto, Normal';font-variant-ligatures:normal;font-variant-caps:normal;font-variant-numeric:normal;font-feature-settings:normal;text-align:start;writing-mode:lr-tb;text-anchor:start;fill:#1f1f1f;fill-opacity:1;stroke-width:0.26458332"
         id="path1137" />
      <path
         d="m 12.581279,186.38745 q -0.204639,0.24064 -0.600652,0.24064 -0.327801,0 -0.500228,-0.18948 -0.170532,-0.19137 -0.172427,-0.56465 v -1.33394 h 0.350538 v 1.32447 q 0,0.46612 0.378961,0.46612 0.401698,0 0.534334,-0.29938 v -1.49121 h 0.350539 v 2.05017 h -0.333486 z"
         style="font-style:normal;font-variant:normal;font-weight:normal;font-stretch:normal;font-size:3.88055563px;font-family:Roboto;-inkscape-font-specification:'Roboto, Normal';font-variant-ligatures:normal;font-variant-caps:normal;font-variant-numeric:normal;font-feature-settings:normal;text-align:start;writing-mode:lr-tb;text-anchor:start;fill:#1f1f1f;fill-opacity:1;stroke-width:0.26458332"
         id="path1139" />
      <path
         d="m 13.928484,184.04358 v 0.49644 h 0.38275 v 0.27096 h -0.38275 v 1.27141 q 0,0.12316 0.05116,0.18569 0.05116,0.0606 0.174322,0.0606 0.06063,0 0.166743,-0.0227 v 0.28422 q -0.138321,0.0379 -0.269062,0.0379 -0.234956,0 -0.354328,-0.14211 -0.119373,-0.14211 -0.119373,-0.40359 v -1.27141 h -0.373276 v -0.27096 h 0.373276 v -0.49644 z"
         style="font-style:normal;font-variant:normal;font-weight:normal;font-stretch:normal;font-size:3.88055563px;font-family:Roboto;-inkscape-font-specification:'Roboto, Normal';font-variant-ligatures:normal;font-variant-caps:normal;font-variant-numeric:normal;font-feature-settings:normal;text-align:start;writing-mode:lr-tb;text-anchor:start;fill:#1f1f1f;fill-opacity:1;stroke-width:0.26458332"
         id="path1141" />
    </g>
    <g
       aria-label="scale"
       style="font-style:normal;font-weight:normal;font-size:10.58333302px;line-height:1.25;font-family:sans-serif;letter-spacing:0px;word-spacing:0px;display:inline;fill:#1f1f1f;fill-opacity:1;stroke:none;stroke-width:0.26458332"
       id="text1014-3-8">
      <path
         d="m 7.0569823,205.53845 q 0,-0.14211 -0.1080038,-0.2198 -0.1061089,-0.0796 -0.3732761,-0.13642 -0.2652723,-0.0568 -0.4225409,-0.13643 -0.1553738,-0.0796 -0.2311659,-0.18948 -0.073897,-0.1099 -0.073897,-0.26148 0,-0.25201 0.2122178,-0.42633 0.2141127,-0.17432 0.5457032,-0.17432 0.3486436,0 0.5646511,0.18 0.2179023,0.18001 0.2179023,0.46044 H 7.0361395 q 0,-0.144 -0.1231622,-0.24822 -0.1212674,-0.10421 -0.306958,-0.10421 -0.1913751,0 -0.2993788,0.0834 -0.1080038,0.0834 -0.1080038,0.2179 0,0.12695 0.1004246,0.19138 0.1004245,0.0644 0.3619072,0.12316 0.2633776,0.0587 0.4263306,0.14021 0.162953,0.0815 0.2406399,0.19706 0.079582,0.11369 0.079582,0.27854 0,0.27475 -0.2197971,0.44149 -0.2197971,0.16485 -0.5703356,0.16485 -0.2463243,0 -0.4358046,-0.0872 -0.1894803,-0.0872 -0.297484,-0.24254 -0.1061089,-0.15727 -0.1061089,-0.33917 H 6.128529 q 0.00947,0.17622 0.1402154,0.28043 0.1326362,0.10232 0.3486437,0.10232 0.1989543,0 0.3183268,-0.0796 0.1212674,-0.0815 0.1212674,-0.21601 z"
         style="font-style:normal;font-variant:normal;font-weight:normal;font-stretch:normal;font-size:3.88055563px;font-family:Roboto;-inkscape-font-specification:'Roboto, Normal';font-variant-ligatures:normal;font-variant-caps:normal;font-variant-numeric:normal;font-feature-settings:normal;text-align:start;writing-mode:lr-tb;text-anchor:start;fill:#1f1f1f;fill-opacity:1;stroke-width:0.26458332"
         id="path1122" />
      <path
         d="m 8.6865125,205.83404 q 0.1875854,0 0.3278008,-0.11369 0.1402154,-0.11369 0.1553738,-0.28422 h 0.3315905 q -0.00947,0.17622 -0.1212674,0.33538 -0.1117934,0.15917 -0.2993788,0.25391 -0.1856907,0.0947 -0.3941189,0.0947 -0.4187514,0 -0.6669705,-0.27854 -0.2463244,-0.28043 -0.2463244,-0.7655 v -0.0587 q 0,-0.29938 0.1098986,-0.53244 0.1098985,-0.23306 0.3145372,-0.36191 0.2065335,-0.12884 0.4869643,-0.12884 0.344854,0 0.5722303,0.20653 0.2292711,0.20653 0.2444296,0.53623 H 9.1696871 q -0.015158,-0.19895 -0.1515842,-0.32591 -0.134531,-0.12884 -0.3334852,-0.12884 -0.2671672,0 -0.4149618,0.19327 -0.1458998,0.19137 -0.1458998,0.55517 v 0.0663 q 0,0.35433 0.1458998,0.54571 0.1458998,0.19137 0.4168566,0.19137 z"
         style="font-style:normal;font-variant:normal;font-weight:normal;font-stretch:normal;font-size:3.88055563px;font-family:Roboto;-inkscape-font-specification:'Roboto, Normal';font-variant-ligatures:normal;font-variant-caps:normal;font-variant-numeric:normal;font-feature-settings:normal;text-align:start;writing-mode:lr-tb;text-anchor:start;fill:#1f1f1f;fill-opacity:1;stroke-width:0.26458332"
         id="path1124" />
      <path
         d="m 11.161125,206.08226 q -0.03032,-0.0606 -0.04927,-0.21601 -0.24443,0.25391 -0.583599,0.25391 -0.303169,0 -0.498334,-0.17054 -0.1932694,-0.17242 -0.1932694,-0.4358 0,-0.32022 0.2425344,-0.49644 0.24443,-0.17811 0.685919,-0.17811 h 0.341064 v -0.16106 q 0,-0.18379 -0.109898,-0.2918 -0.109899,-0.1099 -0.324012,-0.1099 -0.187585,0 -0.314537,0.0947 -0.126951,0.0947 -0.126951,0.22927 H 9.8783432 q 0,-0.15347 0.1080038,-0.29558 0.109899,-0.14401 0.295589,-0.22738 0.187586,-0.0834 0.411172,-0.0834 0.354328,0 0.555177,0.17811 0.20085,0.17622 0.208429,0.48696 v 0.94362 q 0,0.28232 0.072,0.44906 v 0.0303 z m -0.581705,-0.26717 q 0.164848,0 0.312643,-0.0853 0.147794,-0.0853 0.214112,-0.2217 v -0.42064 h -0.274746 q -0.644233,0 -0.644233,0.37706 0,0.16485 0.109899,0.2577 0.109898,0.0928 0.282325,0.0928 z"
         style="font-style:normal;font-variant:normal;font-weight:normal;font-stretch:normal;font-size:3.88055563px;font-family:Roboto;-inkscape-font-specification:'Roboto, Normal';font-variant-ligatures:normal;font-variant-caps:normal;font-variant-numeric:normal;font-feature-settings:normal;text-align:start;writing-mode:lr-tb;text-anchor:start;fill:#1f1f1f;fill-opacity:1;stroke-width:0.26458332"
         id="path1126" />
      <path
         d="m 12.390851,206.08226 h -0.350538 v -2.91042 h 0.350538 z"
         style="font-style:normal;font-variant:normal;font-weight:normal;font-stretch:normal;font-size:3.88055563px;font-family:Roboto;-inkscape-font-specification:'Roboto, Normal';font-variant-ligatures:normal;font-variant-caps:normal;font-variant-numeric:normal;font-feature-settings:normal;text-align:start;writing-mode:lr-tb;text-anchor:start;fill:#1f1f1f;fill-opacity:1;stroke-width:0.26458332"
         id="path1128" />
      <path
         d="m 13.800585,206.12016 q -0.416857,0 -0.67834,-0.27286 -0.261482,-0.27474 -0.261482,-0.73328 v -0.0644 q 0,-0.30506 0.115583,-0.54381 0.117477,-0.24064 0.325906,-0.37517 0.210323,-0.13642 0.454752,-0.13642 0.399804,0 0.621495,0.26338 0.221692,0.26337 0.221692,0.75413 v 0.1459 h -1.38889 q 0.0076,0.30316 0.176217,0.49075 0.170532,0.18569 0.432015,0.18569 0.18569,0 0.314537,-0.0758 0.128847,-0.0758 0.225481,-0.20085 l 0.214113,0.16674 q -0.257693,0.39602 -0.773079,0.39602 z m -0.04358,-1.83796 q -0.212218,0 -0.356223,0.15537 -0.144005,0.15348 -0.178111,0.43202 h 1.026983 v -0.0265 q -0.01516,-0.26717 -0.144005,-0.41307 -0.128847,-0.14779 -0.348644,-0.14779 z"
         style="font-style:normal;font-variant:normal;font-weight:normal;font-stretch:normal;font-size:3.88055563px;font-family:Roboto;-inkscape-font-specification:'Roboto, Normal';font-variant-ligatures:normal;font-variant-caps:normal;font-variant-numeric:normal;font-feature-settings:normal;text-align:start;writing-mode:lr-tb;text-anchor:start;fill:#1f1f1f;fill-opacity:1;stroke-width:0.26458332"
         id="path1130" />
    </g>
    <g
       aria-label="offset"
       style="font-style:normal;font-weight:normal;font-size:10.58333302px;line-height:1.25;font-family:sans-serif;letter-spacing:0px;word-spacing:0px;display:inline;fill:#1f1f1f;fill-opacity:1;stroke:none;stroke-width:0.26458332"
       id="text1014-3-8-4">
      <path
         d="m 5.2256554,231.0408 q 0,-0.30127 0.1174778,-0.54191 0.1193725,-0.24064 0.3296956,-0.37138 0.2122179,-0.13074 0.4831747,-0.13074 0.4187513,0 0.6764445,0.2899 0.2595879,0.28991 0.2595879,0.77119 v 0.0246 q 0,0.29938 -0.1155829,0.53812 -0.1136882,0.23685 -0.3278009,0.36949 -0.2122179,0.13263 -0.488859,0.13263 -0.4168566,0 -0.6764445,-0.2899 -0.2576932,-0.2899 -0.2576932,-0.76739 z m 0.3524333,0.0417 q 0,0.34106 0.1572686,0.5476 0.1591634,0.20653 0.4244358,0.20653 0.2671671,0 0.4244357,-0.20843 0.1572687,-0.21032 0.1572687,-0.58739 0,-0.33727 -0.1610583,-0.5457 -0.1591634,-0.21032 -0.4244357,-0.21032 -0.259588,0 -0.4187514,0.20653 -0.1591634,0.20653 -0.1591634,0.59118 z"
         style="font-style:normal;font-variant:normal;font-weight:normal;font-stretch:normal;font-size:3.88055563px;font-family:Roboto;-inkscape-font-specification:'Roboto, Normal';font-variant-ligatures:normal;font-variant-caps:normal;font-variant-numeric:normal;font-feature-settings:normal;text-align:start;writing-mode:lr-tb;text-anchor:start;fill:#1f1f1f;fill-opacity:1;stroke-width:0.26458332"
         id="path1109" />
      <path
         d="m 7.7040571,232.08484 v -1.77922 H 7.3800458 v -0.27096 h 0.3240113 v -0.21032 q 0,-0.3297 0.1762166,-0.5097 0.1762166,-0.18001 0.4983331,-0.18001 0.1212673,0 0.2406399,0.0322 l -0.018948,0.28422 q -0.089056,-0.0171 -0.1894803,-0.0171 -0.1705322,0 -0.2633776,0.10042 -0.092845,0.0985 -0.092845,0.28423 v 0.216 h 0.4376994 v 0.27096 H 8.0545955 v 1.77922 z"
         style="font-style:normal;font-variant:normal;font-weight:normal;font-stretch:normal;font-size:3.88055563px;font-family:Roboto;-inkscape-font-specification:'Roboto, Normal';font-variant-ligatures:normal;font-variant-caps:normal;font-variant-numeric:normal;font-feature-settings:normal;text-align:start;writing-mode:lr-tb;text-anchor:start;fill:#1f1f1f;fill-opacity:1;stroke-width:0.26458332"
         id="path1111" />
      <path
         d="m 9.0531564,232.08484 v -1.77922 H 8.7291452 v -0.27096 h 0.3240112 v -0.21032 q 0,-0.3297 0.1762167,-0.5097 0.1762166,-0.18001 0.4983331,-0.18001 0.1212673,0 0.2406399,0.0322 l -0.018948,0.28422 q -0.089056,-0.0171 -0.1894803,-0.0171 -0.1705322,0 -0.2633776,0.10042 -0.092845,0.0985 -0.092845,0.28423 v 0.216 h 0.4376994 v 0.27096 H 9.4036949 v 1.77922 z"
         style="font-style:normal;font-variant:normal;font-weight:normal;font-stretch:normal;font-size:3.88055563px;font-family:Roboto;-inkscape-font-specification:'Roboto, Normal';font-variant-ligatures:normal;font-variant-caps:normal;font-variant-numeric:normal;font-feature-settings:normal;text-align:start;writing-mode:lr-tb;text-anchor:start;fill:#1f1f1f;fill-opacity:1;stroke-width:0.26458332"
         id="path1113" />
      <path
         d="m 11.423555,231.54103 q 0,-0.14211 -0.108004,-0.2198 -0.106109,-0.0796 -0.373276,-0.13642 -0.265273,-0.0568 -0.422541,-0.13643 -0.155374,-0.0796 -0.231166,-0.18948 -0.0739,-0.1099 -0.0739,-0.26148 0,-0.25201 0.212218,-0.42633 0.214112,-0.17432 0.545703,-0.17432 0.348643,0 0.564651,0.18 0.217902,0.18001 0.217902,0.46044 h -0.352433 q 0,-0.14401 -0.123162,-0.24822 -0.121268,-0.10421 -0.306958,-0.10421 -0.191375,0 -0.299379,0.0834 -0.108004,0.0834 -0.108004,0.2179 0,0.12695 0.100425,0.19138 0.100424,0.0644 0.361907,0.12316 0.263377,0.0587 0.426331,0.14021 0.162953,0.0815 0.240639,0.19706 0.07958,0.11369 0.07958,0.27854 0,0.27474 -0.219797,0.44149 -0.219797,0.16484 -0.570336,0.16484 -0.246324,0 -0.435804,-0.0872 -0.18948,-0.0872 -0.297484,-0.24253 -0.106109,-0.15727 -0.106109,-0.33917 h 0.350538 q 0.0095,0.17622 0.140216,0.28043 0.132636,0.10232 0.348643,0.10232 0.198955,0 0.318327,-0.0796 0.121268,-0.0815 0.121268,-0.21601 z"
         style="font-style:normal;font-variant:normal;font-weight:normal;font-stretch:normal;font-size:3.88055563px;font-family:Roboto;-inkscape-font-specification:'Roboto, Normal';font-variant-ligatures:normal;font-variant-caps:normal;font-variant-numeric:normal;font-feature-settings:normal;text-align:start;writing-mode:lr-tb;text-anchor:start;fill:#1f1f1f;fill-opacity:1;stroke-width:0.26458332"
         id="path1115" />
      <path
         d="m 13.081507,232.12273 q -0.416857,0 -0.67834,-0.27285 -0.261482,-0.27474 -0.261482,-0.73329 v -0.0644 q 0,-0.30506 0.115583,-0.54381 0.117477,-0.24064 0.325906,-0.37517 0.210323,-0.13642 0.454752,-0.13642 0.399804,0 0.621495,0.26337 0.221692,0.26338 0.221692,0.75414 v 0.1459 h -1.38889 q 0.0076,0.30316 0.176217,0.49075 0.170532,0.18569 0.432015,0.18569 0.18569,0 0.314537,-0.0758 0.128846,-0.0758 0.225481,-0.20085 l 0.214113,0.16674 q -0.257693,0.39601 -0.773079,0.39601 z m -0.04358,-1.83795 q -0.212218,0 -0.356223,0.15537 -0.144005,0.15348 -0.178111,0.43202 h 1.026983 v -0.0265 q -0.01516,-0.26717 -0.144005,-0.41307 -0.128847,-0.14779 -0.348644,-0.14779 z"
         style="font-style:normal;font-variant:normal;font-weight:normal;font-stretch:normal;font-size:3.88055563px;font-family:Roboto;-inkscape-font-specification:'Roboto, Normal';font-variant-ligatures:normal;font-variant-caps:normal;font-variant-numeric:normal;font-feature-settings:normal;text-align:start;writing-mode:lr-tb;text-anchor:start;fill:#1f1f1f;fill-opacity:1;stroke-width:0.26458332"
         id="path1117" />
      <path
         d="m 14.760302,229.53822 v 0.49644 h 0.38275 v 0.27096 h -0.38275 v 1.27141 q 0,0.12316 0.05116,0.18569 0.05116,0.0606 0.174322,0.0606 0.06063,0 0.166743,-0.0227 v 0.28422 q -0.138321,0.0379 -0.269062,0.0379 -0.234956,0 -0.354328,-0.14211 -0.119373,-0.14211 -0.119373,-0.40359 v -1.27141 h -0.373276 v -0.27096 h 0.373276 v -0.49644 z"
         style="font-style:normal;font-variant:normal;font-weight:normal;font-stretch:normal;font-size:3.88055563px;font-family:Roboto;-inkscape-font-specification:'Roboto, Normal';font-variant-ligatures:normal;font-variant-caps:normal;font-variant-numeric:normal;font-feature-settings:normal;text-align:start;writing-mode:lr-tb;text-anchor:start;fill:#1f1f1f;fill-opacity:1;stroke-width:0.26458332"
         id="path1119" />
    </g>
  </g>
  <g
     inkscape:groupmode="layer"
     id="layer2"
     inkscape:label="components"
     style="display:inline">
    <circle
       style="opacity:1;fill:#00ff00;fill-opacity:1;stroke:none;stroke-width:1.05833328;stroke-linecap:butt;stroke-linejoin:round;stroke-miterlimit:4;stroke-dasharray:none"
       id="path4908-7"
       cx="10.189091"
       cy="24.282101"
       r="2.916343"
       inkscape:label="MAIN" />
    <circle
       style="opacity:1;fill:#0000ff;fill-opacity:1;stroke:none;stroke-width:1.05833328;stroke-linecap:butt;stroke-linejoin:round;stroke-miterlimit:4;stroke-dasharray:none"
       id="path4908-5"
       cx="10.189091"
       cy="108.06093"
       r="2.916343"
       inkscape:label="MAIN" />
    <circle
       style="display:inline;opacity:1;fill:#ff0000;fill-opacity:1;stroke:none;stroke-width:1.05833328;stroke-linecap:butt;stroke-linejoin:round;stroke-miterlimit:4;stroke-dasharray:none"
       id="path4908-24"
       cx="10.189091"
       cy="43.900726"
       r="2.916343"
       inkscape:label="SCALE" />
    <circle
       style="display:inline;opacity:1;fill:#ff0000;fill-opacity:1;stroke:none;stroke-width:1.05833328;stroke-linecap:butt;stroke-linejoin:round;stroke-miterlimit:4;stroke-dasharray:none"
       id="path4908-2-0"
       cx="10.189091"
       cy="70.006111"
       r="2.916343"
       inkscape:label="OFFSET" />
  </g>
</svg>
